<svg xmlns="http://www.w3.org/2000/svg" xmlns:xlink="http://www.w3.org/1999/xlink" version="1.1" x="0px" y="0px" viewBox="0 0 100 125" enable-background="new 0 0 100 100" xml:space="preserve"><path d="M89.102,78.406c-3.95,5.431-5.606-3.91-8.396-4.677c-1.335-0.367-2.945,0.355-4.126,0.853  c-2.238,0.944-2.372,0.354-3.265-1.278c-1.23-2.248-3.074-4.884-5.844-5.069c-3.695-0.247-3.98-4.168-6.08-6.031  c0.331-0.561,0.647-1.133,0.936-1.72c0.645,0.101,1.422-0.411,1.228-1.253c-0.076-0.331-0.164-0.661-0.243-0.992  c0.116-0.295,0.23-0.59,0.338-0.889c0.335,0.077,0.71,0,0.969-0.259c0.02-0.02,0.04-0.04,0.06-0.06  c0.377-0.377,0.357-0.832,0.148-1.185c-0.1-0.442-0.194-0.886-0.285-1.33c0.2-0.74,0.376-1.484,0.533-2.229  c0.502-0.232,0.828-0.794,0.427-1.38c0.308,0.45,0.079,0.115,0.14-1.654c0.002-0.069-0.002-0.138,0-0.207  c0.012-0.084,0.027-0.17,0.038-0.254c0.002-0.013-0.004-0.021-0.002-0.033c0.542-1.298,0.993-2.598,1.33-3.874  c0.278-1.054-1.006-1.589-1.657-1.034c-0.005-0.05-0.009-0.1-0.014-0.15c0.3-0.208,0.573-0.429,0.811-0.667  c0.832-0.832-0.223-2.059-1.123-1.662c-0.499-2.605-1.516-5.148-2.516-7.564c-0.598-1.443-1.47-2.892-2.507-4.286  c-0.078-0.201-0.199-0.382-0.376-0.493c-0.471-0.604-0.97-1.196-1.491-1.77c-0.049-0.471-0.383-0.913-0.909-0.958  c-0.418-0.425-0.844-0.84-1.277-1.238c0.203-0.592-0.107-1.399-0.928-1.43c-0.105-0.004-0.211-0.001-0.317-0.003  c-3.967-4.662-11.351-6.496-17.132-6.563c-0.456-0.005-0.907,0.013-1.357,0.036c-0.371-0.239-0.849-0.251-1.178,0.099  c-3.348,0.358-6.49,1.475-9.367,3.129c-0.445-0.037-0.93,0.158-1.143,0.671c-0.005,0.012-0.01,0.023-0.014,0.035  c-3.284,2.099-6.199,4.867-8.645,7.934c-2.022,2.535-3.271,5.55-3.993,8.745c-1.08-0.597-2.035,1.106-0.958,1.806  c0.014,0.009,0.028,0.018,0.042,0.028c-0.022,0.026-0.047,0.048-0.069,0.075c-0.109,0.133-0.178,0.273-0.215,0.415  c-0.781-0.087-1.609,0.676-1.03,1.467c0.281,0.384,0.597,0.759,0.93,1.129c-0.256,0.075-0.515,0.161-0.769,0.222  c-0.431,0.104-0.64,0.399-0.701,0.728c-0.234,0.356-0.256,0.828,0.157,1.203c0.595,0.541,1.194,1.054,1.792,1.573  c0.001,0.072,0,0.143,0.001,0.215c-0.095-0.094-0.191-0.185-0.286-0.28c-0.935-0.933-2.382,0.514-1.447,1.447  c0.624,0.622,1.248,1.235,1.873,1.843c0.035,0.472,0.076,0.938,0.121,1.402c-0.805-0.965-2.524,0.035-1.733,1.07  c0.703,0.92,1.46,1.777,2.24,2.607c0.641,3.24,1.832,6.16,3.311,9.196c0.371,0.762,1.101,1.818,1.975,2.841  c0.333,0.634,0.753,1.115,1.288,1.374c0.003,0.001,0.006,0.001,0.008,0.002c0.772,0.738,1.572,1.352,2.3,1.687  c0.005,0.056,0.009,0.113,0.014,0.169c0.109,1.305,2.156,1.316,2.047,0c-0.192-2.299-0.332-4.574-0.416-6.839  c0.121,0.08,0.243,0.159,0.365,0.238c-0.131,2.883,0.026,5.873,0.392,8.502c0.182,1.303,2.154,0.746,1.974-0.544  c-0.296-2.123-0.358-4.361-0.272-6.61c0.336,0.214,0.672,0.428,1.009,0.641c-0.039,1.244-0.046,2.491-0.011,3.744  c-0.054,0.051-0.112,0.099-0.166,0.15c-0.561,0.543-0.279,1.259,0.236,1.573c0.038,0.638,0.084,1.277,0.148,1.919  c0.096,0.955,1.221,1.209,1.762,0.759c0.031,0.13,0.082,0.254,0.155,0.366c0.091,0.517,0.209,1.011,0.393,1.441  c0.499,1.165,2.131,0.238,1.795-0.902c1.131,0.237,2.735,0.711,3.46,0.756c2.266,0.143,4.525-0.034,6.765-0.344  c1.644-0.227,3.234-0.622,4.787-1.122c0.415,0.06,0.692,0.103,0.705,0.116c0.787,0.788,1.923-0.117,1.705-0.981  c0.745-0.301,1.478-0.631,2.207-0.973c0.088,0.011,0.175,0.028,0.264,0.038c0.519,0.056,0.822-0.234,0.929-0.61  c0.76-0.381,1.511-0.784,2.257-1.195c0.034,0.006,0.066,0.014,0.1,0.02c0.625,0.104,1.07-0.306,1.223-0.78  c2.094-1.26,3.837-2.875,5.27-4.735c0.074,0.438,0.383,0.829,0.958,0.829c0.076,0,0.152,0,0.228,0c0.046,0,0.09-0.013,0.135-0.021  c0.412,1.179,0.681,2.543,1.493,3.208c1.308,1.07,2.275,1.549,4,1.645c5.476,0.305,3.302,7.829,8.528,7.391  c1.662-0.139,4.006-3.344,5.711-1.019c1.047,1.428,1.258,3.659,2.491,4.926c3.148,3.235,5.393,0.841,7.52-2.083  C91.647,78.37,89.87,77.35,89.102,78.406z M56.23,65.057c-0.883,0.017-1.989-0.225-3.163-0.586c0.159-0.104,0.321-0.197,0.479-0.303  c0.146-0.098,0.29-0.209,0.435-0.311c0.919,0.261,1.849,0.484,2.787,0.665C56.596,64.705,56.411,64.879,56.23,65.057z   M52.718,67.882c-1.228-0.261-2.432-0.608-3.615-1.018c0.694-0.387,1.385-0.78,2.067-1.195c0.438,0.169,0.871,0.351,1.294,0.566  c0.496,0.252,1.093,0.461,1.709,0.617C53.708,67.21,53.222,67.553,52.718,67.882z M22.3,56.33c0.011-0.502,0.031-1.003,0.05-1.505  c0.438,0.282,0.877,0.566,1.32,0.842c-0.06,0.495-0.125,0.989-0.199,1.483C23.078,56.881,22.686,56.608,22.3,56.33z M18.455,56.07  c0.529,0.423,1.067,0.835,1.609,1.242c0.002,0.699,0.012,1.397,0.029,2.096c-0.563-0.425-1.121-0.855-1.667-1.297  C18.421,57.429,18.437,56.749,18.455,56.07z M18.804,29.801c-0.006-0.41-0.217-0.677-0.492-0.832  c0.264-0.332,0.541-0.661,0.831-0.985c0.12,2.08,0.203,4.17,0.436,6.236c-0.143,0.066-0.286,0.13-0.429,0.195  C18.921,32.895,18.827,31.354,18.804,29.801z M23.633,23.97c0.137,0.429,0.291,0.854,0.442,1.28  c-0.281,0.633-0.557,1.27-0.829,1.909c-0.18-0.864-0.35-1.701-0.517-2.514C23.025,24.414,23.328,24.191,23.633,23.97z   M57.169,29.504c-0.293,0.096-0.586,0.192-0.878,0.288c-0.215-0.366-0.438-0.725-0.659-1.086c0.252-0.059,0.504-0.118,0.756-0.177  C56.66,28.844,56.91,29.178,57.169,29.504z M59.566,32.989c-0.407,0.168-0.823,0.329-1.246,0.483  c-0.328-0.626-0.661-1.246-1.001-1.862c0.376-0.125,0.753-0.246,1.129-0.371C58.841,31.811,59.215,32.393,59.566,32.989z   M61.246,36.253c-0.435,0.132-0.87,0.264-1.307,0.394c-0.225-0.453-0.453-0.904-0.68-1.354c0.44-0.164,0.855-0.354,1.282-0.532  C60.79,35.253,61.027,35.751,61.246,36.253z M62.178,38.644c0.44,1.315,0.723,2.651,0.922,4c-0.261,0.13-0.539,0.255-0.826,0.377  c-0.397-1.523-0.875-3.024-1.48-4.49c0.4-0.122,0.802-0.243,1.202-0.365C62.053,38.326,62.125,38.484,62.178,38.644z M50.665,63.635  c-0.898-0.338-1.766-0.679-2.537-0.964c0.051-0.03,0.103-0.056,0.153-0.085c0.099-0.059,0.198-0.127,0.297-0.187  c0.336,0.162,0.727,0.119,1.031-0.059c0.631,0.257,1.267,0.499,1.907,0.727c-0.037,0.025-0.074,0.054-0.112,0.079  C51.168,63.306,50.915,63.471,50.665,63.635z M31.502,60.125c0.268,0.14,0.529,0.284,0.799,0.423  c-0.366,0.302-0.725,0.608-1.077,0.92c0.064-0.303,0.122-0.607,0.19-0.91C31.447,60.415,31.471,60.269,31.502,60.125z   M25.953,55.063c0.051-0.308,0.105-0.616,0.146-0.926c0.198,0.109,0.399,0.215,0.598,0.323c-0.041,0.308-0.083,0.616-0.116,0.927  C26.372,55.279,26.161,55.173,25.953,55.063z M14.195,43.334c0.484-0.238,0.966-0.483,1.446-0.729  c0.507,0.331,1.014,0.663,1.52,0.993c-0.615,0.219-1.228,0.44-1.847,0.649C14.93,43.947,14.559,43.642,14.195,43.334z   M13.386,41.603c0.02-0.145,0.031-0.291,0.053-0.436c0.126,0.082,0.253,0.165,0.378,0.247C13.673,41.479,13.53,41.54,13.386,41.603z   M26.78,24.225c0.017,0.018,0.035,0.037,0.053,0.055c-0.172,0.394-0.34,0.79-0.502,1.19c-0.019-0.049-0.037-0.097-0.056-0.146  C26.442,24.955,26.612,24.591,26.78,24.225z M53.633,29.17c0.265,0.41,0.535,0.817,0.788,1.235c-0.243,0.079-0.485,0.16-0.728,0.239  c-0.253-0.439-0.496-0.885-0.763-1.314C53.165,29.277,53.399,29.223,53.633,29.17z M51.701,27.473  c-0.375-0.546-0.764-1.084-1.158-1.617c0.228-0.024,0.455-0.044,0.682-0.064c0.394,0.503,0.778,1.014,1.151,1.535  C52.152,27.375,51.927,27.425,51.701,27.473z M57.584,36.501c0.11,0.25,0.197,0.499,0.301,0.748  c-0.348,0.101-0.696,0.204-1.045,0.305c-0.089-0.253-0.178-0.507-0.268-0.759c-0.061-0.172-0.138-0.334-0.202-0.504  c0.323-0.106,0.641-0.218,0.963-0.327C57.416,36.143,57.505,36.321,57.584,36.501z M55.682,40.492  c0.486,1.457,0.981,2.92,1.473,4.386c-0.221,0.087-0.431,0.173-0.616,0.257c-2.794,1.286-5.319,2.88-7.862,4.529  c-1.602-1.944-3.195-3.896-4.793-5.845c-0.024-0.029-0.046-0.06-0.07-0.089c3.897-1.24,7.815-2.429,11.731-3.608  C55.589,40.248,55.64,40.365,55.682,40.492z M55.515,57.628c0.793-0.599,1.573-1.2,2.332-1.791c0.833-0.648,1.531-1.313,2.164-1.996  c0.055,0.19,0.112,0.379,0.167,0.569c-1.074,1.52-2.261,2.961-3.533,4.285C56.261,58.345,55.884,57.99,55.515,57.628z   M61.608,51.914c0.076-0.101,0.152-0.205,0.228-0.308c0.012,0.057,0.024,0.115,0.036,0.172c-0.067,0.115-0.133,0.231-0.201,0.346  C61.649,52.054,61.628,51.984,61.608,51.914z M59.364,51.683c-0.523,0.627-1.089,1.222-1.741,1.756  c-1.105,0.905-2.294,1.807-3.516,2.693c-0.474-0.551-0.933-1.114-1.403-1.669c2.202-0.972,4.45-1.929,6.592-2.999  C59.318,51.538,59.341,51.61,59.364,51.683z M34.253,61.584c0.253,0.138,0.507,0.275,0.759,0.414  c-0.519,0.335-1.031,0.678-1.543,1.024c-0.186-0.106-0.374-0.213-0.559-0.318C33.348,62.323,33.796,61.951,34.253,61.584z   M35.967,60.265c0.244-0.18,0.491-0.358,0.739-0.535c0.347,0.185,0.695,0.37,1.043,0.552c-0.284,0.173-0.57,0.342-0.853,0.518  C36.587,60.621,36.277,60.443,35.967,60.265z M38.496,58.49c0.48-0.323,0.964-0.642,1.45-0.956c0.416,0.231,0.833,0.461,1.252,0.691  c-0.507,0.296-1.014,0.595-1.523,0.897C39.28,58.913,38.887,58.704,38.496,58.49z M23.051,34.913  c0.055,0.186,0.117,0.37,0.174,0.556c-0.099,0.401-0.196,0.802-0.291,1.202c-0.287,0.133-0.571,0.276-0.855,0.418  c-0.053-0.196-0.104-0.394-0.149-0.593c0.138-0.426,0.28-0.851,0.424-1.275C22.585,35.116,22.818,35.016,23.051,34.913z   M49.36,53.689c-1.418,0.726-2.827,1.483-4.23,2.273c-0.12-0.13-0.242-0.257-0.359-0.392c-0.197-0.228-0.397-0.454-0.595-0.68  c1.391-0.851,2.761-1.687,4.079-2.522C48.622,52.811,48.991,53.25,49.36,53.689z M46.655,50.977  c-1.229,0.794-2.513,1.588-3.817,2.393c-2.1-2.377-4.177-4.76-5.92-7.419c1.047-0.331,2.092-0.667,3.132-1.011  c0.557-0.184,1.119-0.358,1.678-0.539c1.727,2.138,3.461,4.271,5.209,6.393C46.842,50.855,46.749,50.916,46.655,50.977z   M22.901,47.483c0.055-0.021,0.11-0.042,0.165-0.064c0.35,0.224,0.7,0.451,1.051,0.675c-0.444,0.174-0.887,0.349-1.331,0.522  C22.824,48.238,22.856,47.861,22.901,47.483z M25.585,33.798c0.578-0.25,1.158-0.5,1.738-0.746  c-0.187,0.684-0.374,1.367-0.551,2.053c-0.466,0.173-0.931,0.351-1.394,0.533c-0.055-0.173-0.11-0.345-0.164-0.519  C25.33,34.677,25.462,34.239,25.585,33.798z M30.956,45.848c-0.136-0.14-0.273-0.279-0.405-0.424  c0.036-0.176,0.073-0.352,0.109-0.529c0.393-0.124,0.785-0.248,1.178-0.373c-0.086,0.382-0.173,0.764-0.259,1.146  C31.372,45.732,31.163,45.787,30.956,45.848z M32.357,42.231c-0.42,0.153-0.84,0.306-1.262,0.454  c0.137-0.751,0.263-1.509,0.385-2.27c0.306,0.553,0.612,1.107,0.913,1.657C32.38,42.126,32.369,42.178,32.357,42.231z   M24.479,42.969c0.209-0.083,0.418-0.166,0.627-0.249c-0.056,0.316-0.116,0.632-0.169,0.947  C24.779,43.443,24.626,43.211,24.479,42.969z M26.944,44.042c0.004-0.028,0.007-0.056,0.011-0.084  c0.014,0.022,0.028,0.045,0.042,0.067C26.979,44.031,26.961,44.036,26.944,44.042z M29.088,42.33  c-0.05,0.331-0.112,0.659-0.169,0.988c-0.368-0.548-0.719-1.112-1.042-1.701c0.465-0.185,0.932-0.365,1.399-0.548  C29.213,41.49,29.152,41.912,29.088,42.33z M25.133,40.567c-0.417,0.165-0.834,0.329-1.251,0.494c0.145-0.766,0.31-1.542,0.477-2.32  C24.602,39.359,24.86,39.967,25.133,40.567z M23.253,44.868c0.104,0.143,0.217,0.273,0.326,0.41  c-0.117-0.075-0.234-0.151-0.352-0.227C23.236,44.991,23.244,44.93,23.253,44.868z M27.103,46.989  c0.21-0.29,0.291-0.675,0.151-1.006c0.302-0.097,0.604-0.195,0.906-0.292c0.078,0.101,0.153,0.205,0.233,0.304  c-0.046,0.214-0.094,0.427-0.141,0.64C27.868,46.748,27.484,46.861,27.103,46.989z M33.891,44.828  c0.015,0.028,0.032,0.054,0.047,0.081c-0.023,0.008-0.047,0.015-0.07,0.023C33.875,44.897,33.884,44.862,33.891,44.828z   M32.264,37.79c-0.101-0.189-0.201-0.378-0.302-0.567c0.093-0.644,0.187-1.288,0.281-1.934c0.208-0.087,0.412-0.18,0.62-0.266  c0.459-0.19,0.927-0.355,1.39-0.534c-0.252,0.943-0.492,1.887-0.727,2.832C33.105,37.476,32.684,37.632,32.264,37.79z   M29.798,37.368c-0.067,0.482-0.135,0.961-0.201,1.44c-0.613,0.239-1.225,0.479-1.837,0.721c0.182-0.855,0.373-1.711,0.582-2.567  c0.333-0.144,0.667-0.286,1-0.429C29.494,36.812,29.645,37.09,29.798,37.368z M30,48.154c0.109-0.036,0.217-0.073,0.327-0.109  c0.197,0.18,0.394,0.359,0.6,0.53c-0.053,0.235-0.105,0.47-0.159,0.705c-0.033,0.146-0.059,0.296-0.091,0.443  c-0.291-0.179-0.588-0.353-0.877-0.532C29.865,48.846,29.932,48.5,30,48.154z M33.1,49.441c0.421-0.33,0.603-1.022,0.229-1.518  c0.046-0.295,0.089-0.591,0.139-0.885c0.481-0.152,0.962-0.305,1.444-0.456c1.52,2.428,3.293,4.621,5.229,6.798  c0.313,0.352,0.641,0.704,0.979,1.055c-0.419,0.261-0.837,0.523-1.257,0.788c-1.343-0.782-2.659-1.568-3.947-2.329  c-1.023-0.605-2.024-1.225-3.036-1.837C32.95,50.518,33.024,49.979,33.1,49.441z M40.348,42.66  c-1.489,0.535-2.981,1.071-4.479,1.594c-0.172-0.29-0.342-0.581-0.512-0.873c1.361-0.451,2.72-0.913,4.071-1.404  c0.107-0.039,0.216-0.072,0.323-0.111C39.95,42.132,40.147,42.398,40.348,42.66z M39.189,37.547  c4.448-1.454,8.896-2.907,13.343-4.364c0.33,0.623,0.657,1.249,0.963,1.893c-0.711,0.238-1.411,0.482-2.083,0.746  c-3.529,1.384-7.174,2.6-10.82,3.679C40.121,38.851,39.648,38.206,39.189,37.547z M38.486,40.13  c-1.271,0.375-2.527,0.806-3.779,1.257c0.221-0.856,0.451-1.716,0.689-2.58c0.4-0.137,0.796-0.282,1.197-0.414  c0.184-0.06,0.369-0.12,0.553-0.18C37.588,38.856,38.034,39.495,38.486,40.13z M32.598,32.909c0.058-0.372,0.119-0.743,0.18-1.114  c0.187,0.268,0.375,0.537,0.56,0.806C33.093,32.708,32.845,32.806,32.598,32.909z M30.316,33.806  c-0.042,0.016-0.084,0.031-0.126,0.046c-0.219-0.425-0.442-0.865-0.667-1.313c0.042-0.148,0.083-0.296,0.126-0.444  c0.336-0.138,0.672-0.278,1.009-0.415C30.538,32.389,30.424,33.097,30.316,33.806z M26.353,31.229c0.032-0.1,0.067-0.199,0.1-0.3  c0.034,0.072,0.066,0.145,0.101,0.217C26.488,31.174,26.42,31.201,26.353,31.229z M20.894,46.025  c-0.017,0.102-0.036,0.204-0.053,0.307c-0.503,0.186-1.007,0.364-1.51,0.531c0.094-0.55,0.213-1.097,0.321-1.645  C20.066,45.486,20.48,45.757,20.894,46.025z M19.457,49.801c-0.187,0.057-0.378,0.102-0.566,0.155  c0.021-0.176,0.052-0.353,0.075-0.529C19.132,49.552,19.296,49.676,19.457,49.801z M24.175,50.266  c-0.01,0.126-0.02,0.251-0.031,0.377c-0.117-0.073-0.23-0.153-0.346-0.228C23.924,50.365,24.05,50.316,24.175,50.266z   M26.487,49.589c0.325,0.204,0.647,0.41,0.972,0.613c-0.151,0.702-0.296,1.405-0.426,2.112c-0.237-0.128-0.471-0.261-0.707-0.392  C26.39,51.146,26.442,50.369,26.487,49.589z M29.39,51.388c0.287,0.176,0.573,0.353,0.861,0.529  c-0.111,0.638-0.214,1.278-0.309,1.922c-0.298-0.153-0.596-0.307-0.894-0.461C29.157,52.715,29.271,52.052,29.39,51.388z   M32.589,53.32c1.72,1.023,3.453,2.035,5.217,3.021c0.056,0.031,0.112,0.063,0.168,0.094c-0.484,0.317-0.965,0.64-1.443,0.966  c-1.021-0.573-2.038-1.149-3.054-1.706c-0.372-0.204-0.748-0.402-1.123-0.6C32.435,54.504,32.513,53.913,32.589,53.32z   M41.821,56.345c0.245-0.153,0.491-0.307,0.737-0.459c0.327,0.323,0.654,0.648,0.985,0.974c-0.129,0.075-0.259,0.15-0.388,0.225  C42.707,56.841,42.263,56.594,41.821,56.345z M46.613,57.446c1.304-0.752,2.698-1.438,4.134-2.1  c0.276,0.325,0.544,0.657,0.821,0.981c0.286,0.334,0.588,0.657,0.895,0.978c-1.186,0.83-2.383,1.637-3.554,2.416  C48.191,58.919,47.4,58.188,46.613,57.446z M55.777,50.541c-1.526,0.727-3.029,1.456-4.523,2.197  c-0.416-0.497-0.838-0.991-1.252-1.49c2.456-1.595,4.857-3.16,7.572-4.346c0.071-0.031,0.154-0.06,0.227-0.091  c0.268,0.808,0.532,1.618,0.794,2.429C57.611,49.696,56.646,50.127,55.777,50.541z M42.415,41.938  c-0.201-0.26-0.407-0.512-0.605-0.775c3.378-1.122,6.811-2.109,10.145-3.368c0.775-0.292,1.572-0.566,2.378-0.834  c0.164,0.388,0.324,0.781,0.479,1.177C50.653,39.334,46.481,40.541,42.415,41.938z M55.611,34.386  c-0.286-0.651-0.602-1.283-0.923-1.912c0.259-0.085,0.518-0.17,0.777-0.255c0.345,0.625,0.673,1.257,0.99,1.892  C56.174,34.202,55.893,34.295,55.611,34.386z M51.517,31.348c-4.521,1.457-9.044,2.908-13.538,4.425  c-0.412-0.607-0.825-1.211-1.231-1.819c0.038-0.137,0.074-0.275,0.111-0.412c4.487-1.523,9.129-2.632,13.764-3.686  C50.931,30.346,51.225,30.847,51.517,31.348z M30.566,29.493c-0.054,0.021-0.105,0.044-0.158,0.065  c0.075-0.244,0.147-0.489,0.223-0.732c0.124,0.165,0.247,0.331,0.37,0.497C30.856,29.38,30.709,29.436,30.566,29.493z   M28.228,29.871c-0.271-0.578-0.535-1.157-0.792-1.739c0.282-0.744,0.567-1.484,0.877-2.205c0.276,0.324,0.545,0.653,0.814,0.983  C28.82,27.894,28.521,28.881,28.228,29.871z M25.273,28.326c-0.369,1.085-0.707,2.184-1.025,3.289  c-0.078-0.316-0.156-0.631-0.23-0.945c0.358-0.908,0.724-1.813,1.104-2.71C25.173,28.082,25.221,28.205,25.273,28.326z   M21.339,31.916c-0.096-1.677-0.122-3.363-0.22-4.982c0.241,1.153,0.497,2.336,0.776,3.536C21.706,30.95,21.52,31.432,21.339,31.916  z M18.387,41.279c-0.048,0.189-0.093,0.379-0.139,0.568c-0.153-0.099-0.307-0.198-0.46-0.297c0.188-0.086,0.376-0.176,0.564-0.256  C18.363,41.289,18.375,41.284,18.387,41.279z M17.434,45.655c-0.01,0.052-0.02,0.105-0.029,0.157  c-0.045-0.033-0.09-0.066-0.135-0.099C17.324,45.694,17.379,45.675,17.434,45.655z M22.498,51.986  c0.481,0.314,0.967,0.618,1.458,0.914c-0.029,0.325-0.061,0.65-0.092,0.975c-0.112-0.068-0.226-0.132-0.338-0.201  c-0.367-0.23-0.73-0.476-1.093-0.718C22.452,52.633,22.477,52.309,22.498,51.986z M28.715,55.53c0.31,0.161,0.619,0.322,0.929,0.482  c-0.036,0.28-0.073,0.56-0.107,0.84c-0.315-0.153-0.63-0.306-0.945-0.459C28.631,56.105,28.672,55.817,28.715,55.53z M32.034,57.249  c0.137,0.071,0.274,0.142,0.41,0.213c0.768,0.404,1.523,0.809,2.278,1.214c-0.226,0.165-0.45,0.332-0.673,0.499  c-0.176-0.098-0.352-0.198-0.527-0.296c-0.534-0.296-1.074-0.577-1.617-0.854C31.949,57.767,31.992,57.509,32.034,57.249z   M31.371,64.121c0.095,0.052,0.19,0.105,0.286,0.157c-0.359,0.257-0.712,0.52-1.065,0.783c0.008-0.059,0.016-0.118,0.024-0.177  C30.863,64.627,31.114,64.372,31.371,64.121z M31.68,69.1c-0.532,0.273-1.072,0.52-1.615,0.749c0.076-0.622,0.149-1.191,0.188-1.644  C30.722,68.511,31.198,68.809,31.68,69.1z M32.271,67.121c-0.198-0.109-0.399-0.223-0.598-0.335  c0.641-0.482,1.296-0.952,1.958-1.414c0.795,0.442,1.595,0.885,2.401,1.322c-0.736,0.395-1.471,0.814-2.21,1.234  C33.289,67.664,32.767,67.396,32.271,67.121z M35.454,64.144c0.52-0.343,1.041-0.684,1.568-1.017  c0.982,0.557,1.961,1.115,2.942,1.663c-0.598,0.286-1.191,0.562-1.784,0.84C37.262,65.146,36.353,64.647,35.454,64.144z   M38.905,61.953c0.325-0.198,0.652-0.389,0.979-0.584c1.161,0.583,2.344,1.139,3.548,1.668c-0.44,0.233-0.875,0.469-1.32,0.694  C41.033,63.158,39.966,62.559,38.905,61.953z M41.831,60.214c0.493-0.288,0.984-0.572,1.474-0.856  c1.146,0.604,2.305,1.191,3.48,1.743c-0.381,0.243-0.771,0.477-1.164,0.709C44.333,61.347,43.07,60.81,41.831,60.214z   M51.068,60.813c0.975-0.655,1.938-1.339,2.891-2.037c0.444,0.416,0.894,0.828,1.347,1.237c-0.605,0.567-1.223,1.107-1.855,1.616  C52.652,61.383,51.857,61.112,51.068,60.813z M56.907,61.474c0.437,0.406,0.866,0.817,1.281,1.236  c-0.742-0.107-1.482-0.237-2.217-0.402C56.286,62.038,56.599,61.762,56.907,61.474z M58.25,60.134  c0.928-0.975,1.816-2.018,2.647-3.115c0.081,0.308,0.157,0.616,0.235,0.925c-0.506,1.125-1.092,2.2-1.75,3.226  C59.01,60.821,58.633,60.475,58.25,60.134z M60.504,48.315c-0.239-0.748-0.483-1.493-0.729-2.238  c0.264-0.091,0.534-0.183,0.804-0.276c0.174,0.735,0.342,1.473,0.502,2.212C60.89,48.115,60.698,48.215,60.504,48.315z   M59.139,44.172c-0.527-1.556-1.063-3.107-1.604-4.65c0.373-0.112,0.743-0.226,1.116-0.339c0.562,1.551,1.034,3.103,1.446,4.662  C59.773,43.956,59.452,44.065,59.139,44.172z M54.452,26.871c-0.2-0.299-0.394-0.602-0.601-0.896  c0.305,0.273,0.617,0.537,0.911,0.825C54.659,26.823,54.556,26.848,54.452,26.871z M47.312,21.452  c0.813,0.769,1.585,1.594,2.335,2.443c-0.183,0.023-0.365,0.044-0.548,0.069c-0.945-1.194-1.919-2.369-2.922-3.528  c0.276,0.097,0.554,0.19,0.825,0.297C46.991,20.977,47.078,21.23,47.312,21.452z M43.031,19.944  c1.302,1.469,2.532,2.932,3.697,4.414c-2.77,0.534-5.529,1.315-8.225,2.21c0.442-2.38,0.728-4.755,0.728-7.106  c0-0.156-0.033-0.291-0.083-0.41c1.204,0.072,2.432,0.217,3.649,0.458C42.835,19.659,42.908,19.806,43.031,19.944z M48.113,26.19  c0.433,0.588,0.855,1.184,1.265,1.783c-3.999,0.857-8.017,1.775-11.859,3.055c0.181-0.721,0.353-1.442,0.514-2.163  C41.295,27.744,44.715,26.763,48.113,26.19z M35.078,31.434c-0.032-0.049-0.066-0.099-0.098-0.148  c-0.233-0.354-0.466-0.704-0.7-1.054c0.409-0.156,0.822-0.312,1.239-0.466C35.373,30.327,35.227,30.883,35.078,31.434z   M31.424,26.334c0.716-2.212,1.448-4.4,2.162-6.54c0.053-0.158,0.067-0.305,0.051-0.438c0.122-0.023,0.244-0.046,0.368-0.067  c-0.997,2.346-1.749,4.811-2.343,7.336C31.583,26.528,31.504,26.431,31.424,26.334z M29.858,24.597  c-0.208-0.224-0.415-0.447-0.623-0.67c0.52-1.072,1.063-2.118,1.655-3.104c0.161-0.269,0.182-0.531,0.115-0.761  c0.127-0.044,0.253-0.081,0.379-0.122C30.871,21.479,30.361,23.032,29.858,24.597z M27.721,22.363  c-0.017-0.017-0.034-0.034-0.05-0.051c0.03-0.062,0.058-0.126,0.087-0.188c0.12-0.25,0.119-0.488,0.064-0.706  c0.174-0.088,0.347-0.178,0.521-0.261C28.128,21.555,27.922,21.957,27.721,22.363z M19.801,36.343  c-0.052,0.161-0.105,0.321-0.155,0.482c-0.033-0.124-0.063-0.248-0.094-0.373C19.635,36.417,19.718,36.379,19.801,36.343z   M17.751,37.68c0.156,0.51,0.34,0.984,0.529,1.453c-0.757,0.417-1.528,0.834-2.308,1.237c-0.57-0.371-1.142-0.742-1.713-1.114  c1.047-0.785,2.2-1.398,3.399-1.956C17.693,37.425,17.713,37.555,17.751,37.68z M14.988,46.497c0.514,0.386,1.027,0.766,1.54,1.139  c-0.277,0.058-0.552,0.099-0.828,0.143c-0.427-0.366-0.851-0.733-1.272-1.103C14.615,46.616,14.802,46.558,14.988,46.497z   M14.869,49.947C14.87,49.947,14.87,49.947,14.869,49.947c0.16-0.017,0.317-0.042,0.475-0.064c0.286,0.221,0.575,0.436,0.862,0.654  c-0.055,0.033-0.11,0.066-0.164,0.099c-0.161,0.096-0.268,0.213-0.351,0.335c-0.363-0.327-0.727-0.654-1.088-0.988  C14.694,49.975,14.78,49.957,14.869,49.947C14.869,49.947,14.869,49.947,14.869,49.947z M18.564,53.443  c0.025-0.37,0.065-0.74,0.096-1.111c0.492,0.348,0.981,0.701,1.478,1.039c-0.019,0.433-0.034,0.867-0.046,1.3  C19.578,54.27,19.069,53.859,18.564,53.443z M25.649,56.868c0.247,0.146,0.489,0.297,0.738,0.441  c-0.053,0.547-0.103,1.092-0.153,1.636c-0.28-0.171-0.553-0.35-0.829-0.524C25.482,57.898,25.562,57.381,25.649,56.868z   M28.331,58.41c0.32,0.179,0.631,0.363,0.955,0.54c-0.064,0.547-0.127,1.092-0.192,1.637c-0.32-0.171-0.625-0.354-0.939-0.53  C28.209,59.508,28.267,58.959,28.331,58.41z M28.227,62.448c0.199,0.101,0.399,0.207,0.599,0.31  c-0.054,0.415-0.114,0.826-0.172,1.237c-0.209,0.23-0.42,0.459-0.62,0.695c-0.062-0.037-0.124-0.075-0.186-0.113  c0.028-0.759,0.067-1.516,0.119-2.272C28.056,62.352,28.138,62.403,28.227,62.448z M30.249,71.974  c1.233-0.482,2.435-1.101,3.613-1.759c0.686,0.259,1.39,0.476,2.076,0.723C33.96,71.54,32.031,71.922,30.249,71.974z M36.062,68.971  c0.354-0.199,0.708-0.393,1.06-0.58c0.358-0.19,0.721-0.369,1.082-0.555c0.86,0.44,1.727,0.861,2.6,1.259  c-0.727,0.325-1.459,0.632-2.191,0.916C37.757,69.685,36.901,69.337,36.062,68.971z M40.368,66.733  c0.551-0.275,1.103-0.55,1.654-0.824c0.861,0.456,1.73,0.895,2.608,1.309c-0.483,0.257-0.971,0.51-1.466,0.758  C42.226,67.598,41.294,67.179,40.368,66.733z M44.206,64.799c0.519-0.266,1.039-0.532,1.554-0.807  c0.976,0.331,1.971,0.597,2.96,0.878c-0.608,0.374-1.235,0.751-1.885,1.126C45.949,65.625,45.073,65.224,44.206,64.799z   M63.457,46.106c-0.102,0.058-0.201,0.139-0.291,0.255c-0.036,0.046-0.068,0.094-0.104,0.14c-0.099-0.5-0.202-1-0.311-1.497  c0.202-0.08,0.404-0.159,0.6-0.244C63.391,45.208,63.426,45.656,63.457,46.106z M37.29,19.003c-0.065,0.13-0.107,0.28-0.107,0.459  c0,2.538-0.466,5.255-1.083,7.936c-0.911,0.327-1.813,0.66-2.701,0.998c0.663-3.247,1.56-6.408,2.956-9.358  C36.664,19.021,36.973,19.007,37.29,19.003z M16.729,31.278c0.022-0.039,0.049-0.077,0.072-0.116  c0.052,1.381,0.17,2.766,0.405,4.129c-0.95,0.432-1.871,0.886-2.752,1.4C15.028,34.796,15.767,32.968,16.729,31.278z M13.095,48.084  c0.204,0.168,0.409,0.335,0.614,0.501c-0.061,0.154-0.092,0.315-0.087,0.477c-0.17-0.161-0.342-0.318-0.512-0.48  C13.101,48.417,13.103,48.25,13.095,48.084z M16.313,54.291c-0.056,0.596-0.109,1.227-0.155,1.879  c-0.842-0.763-1.65-1.548-2.415-2.357c-0.118-0.706-0.22-1.406-0.313-2.1C14.378,52.595,15.339,53.454,16.313,54.291z   M14.464,57.209c0.517,0.456,1.037,0.908,1.572,1.342c-0.028,0.949-0.029,1.902,0.01,2.824  C15.363,60.065,14.853,58.657,14.464,57.209z M20.497,67.109c-0.522-0.479-1.081-1.088-1.605-1.705  c-0.383-1.346-0.37-3.72-0.401-4.361c-0.01-0.208-0.006-0.413-0.014-0.621c0.559,0.407,1.117,0.814,1.687,1.206  C20.243,63.463,20.361,65.292,20.497,67.109z M22.298,61.009c-0.014-0.705-0.019-1.41-0.02-2.114  c0.274,0.188,0.543,0.383,0.821,0.566c-0.098,0.629-0.18,1.271-0.242,1.929C22.67,61.264,22.483,61.138,22.298,61.009z   M24.918,62.76c0.052-0.685,0.115-1.367,0.191-2.046c0.308,0.184,0.619,0.364,0.932,0.542c-0.054,0.71-0.1,1.419-0.139,2.128  C25.574,63.178,25.246,62.971,24.918,62.76z M27.804,66.592c0.139,0.091,0.278,0.181,0.416,0.272  c-0.004,0.025-0.007,0.048-0.011,0.073c-0.135,0.113-0.277,0.219-0.411,0.333C27.797,67.044,27.803,66.818,27.804,66.592z   M35.156,73.113c1.003-0.33,1.987-0.719,2.981-1.141c0.589,0.301,1.174,0.553,1.796,0.778c-1.067,0.168-2.148,0.286-3.247,0.334  C36.171,73.107,35.662,73.115,35.156,73.113z M44.803,71.571c-0.912-0.07-1.841-0.079-2.465-0.271  c-0.487-0.151-0.986-0.314-1.489-0.485c0.132-0.055,0.26-0.111,0.394-0.166c0.534-0.219,1.052-0.458,1.578-0.687  c1.105,0.44,2.221,0.82,3.347,1.134C45.715,71.263,45.26,71.422,44.803,71.571z M49.397,69.725  c-1.335-0.189-2.668-0.513-3.994-0.941c0.439-0.211,0.877-0.425,1.311-0.644c1.126,0.463,2.275,0.872,3.455,1.213  C49.913,69.482,49.655,69.602,49.397,69.725z"/><text x="0" y="115" fill="#000000" font-size="5px" font-weight="bold" font-family="'Helvetica Neue', Helvetica, Arial-Unicode, Arial, Sans-serif">Created by Eugen Belyakoff</text><text x="0" y="120" fill="#000000" font-size="5px" font-weight="bold" font-family="'Helvetica Neue', Helvetica, Arial-Unicode, Arial, Sans-serif">from the Noun Project</text></svg>